[URL=http://imageshack.us/photo/my-images/850/spideybanner3.jpg/][IMG]http://img850.imageshack.us/img850/701/spideybanner3.jpg[/IMG][/URL]

7 7 "Exclusive" TBA TBA May 6, 2012 107 

Spider-Man finally agrees to a video interview with Mary Jane and she gets the exclusive scoop when she records Spider-Man and 
Hulk in an all-out battle across Manhattan until Zzzax attacks the S.H.I.E.L.D. Helicarrier.

Introducing characters: Hulk, Zzzax  

Introducing characters: Taskmaster  

File info
----------
Format                           : Matroska
File size                        : 712 MiB
Duration                         : 22mn 8s
Overall bit rate                 : 4 500 Kbps
Encoded date                     : UTC 2012-05-07 08:22:15
Writing application              : mkvmerge v5.5.0 ('Healer') built on Apr  6 2012 21:43:24
Writing library                  : libebml v1.2.3 + libmatroska v1.3.0

Video
ID                               : 1
Format                           : AVC
Format/Info                      : Advanced Video Codec
Format profile                   : High@L3.1
Format settings, CABAC           : No
Format settings, ReFrames        : 2 frames
Format settings, GOP             : M=2, N=38
Muxing mode                      : Header stripping
Codec ID                         : V_MPEG4/ISO/AVC
Duration                         : 22mn 8s
Bit rate                         : 4 027 Kbps
Width                            : 1 280 pixels
Height                           : 720 pixels
Display aspect ratio             : 16:9
Frame rate                       : 23.976 fps
Color space                      : YUV
Chroma subsampling               : 4:2:0
Bit depth                        : 8 bits
Scan type                        : Progressive
Bits/(Pixel*Frame)               : 0.182
Stream size                      : 637 MiB (89%)
Language                         : English
Color primaries                  : BT.709-5, BT.1361, IEC 61966-2-4, SMPTE RP177
Transfer characteristics         : BT.709-5, BT.1361
Matrix coefficients              : BT.709-5, BT.1361, IEC 61966-2-4 709, SMPTE RP177

Audio
ID                               : 2
Format                           : AC-3
Format/Info                      : Audio Coding 3
Mode extension                   : CM (complete main)
Muxing mode                      : Header stripping
Codec ID                         : A_AC3
Duration                         : 22mn 8s
Bit rate mode                    : Constant
Bit rate                         : 384 Kbps
Channel(s)                       : 6 channels
Channel positions                : Front: L C R, Side: L R, LFE
Sampling rate                    : 48.0 KHz
Bit depth                        : 16 bits
Compression mode                 : Lossy
Stream size                      : 60.8 MiB (9%)
Language                         : English


[URL=http://img692.imageshack.us/i/ultimatespidermans01e07.jpg/][IMG]http://img692.imageshack.us/img692/9401/ultimatespidermans01e07.jpg[/IMG][/URL]
[URL=http://img205.imageshack.us/i/ultimatespidermans01e07.jpg/][IMG]http://img205.imageshack.us/img205/9401/ultimatespidermans01e07.jpg[/IMG][/URL]